<?xml version="1.0" encoding="utf-8"?>
<?xml-stylesheet type="text/xsl" href="rss1.xsl"?>
<rss version="2.0" xmlns:atom="http://www.w3.org/2005/Atom" xmlns:content="http://purl.org/rss/1.0/modules/content/" xmlns:dc="http://purl.org/dc/elements/1.1/" xmlns:media="http://search.yahoo.com/mrss/">
<channel>
 <title>Getty</title>
 <link>http://www.gettyimg.com/</link>
 <atom:link href="http://www.gettyimg.com/" rel="self" type="application/rss+xml" />

 
                <item>
                <title><![CDATA[【HD Live Performances】WEB-DL - 2024 BangBangCon - 08/06/2024 - 1080p MKV YouTube]]></title>
                <link><![CDATA[https://sharemania.us/threads/2024-bangbangcon-08-06-2024-1080p-mkv-youtube.246490/]]></link>
                <description><![CDATA[<article>
<blockquote class="messageText SelectQuoteContainer ugc baseHtml">
<img src="https://i.postimg.cc/sDWCQBT6/GPMd1-L8ag-AAfbu0.jpg" class="bbCodeImage LbImage" alt="[​IMG]" data-url="https://i.postimg.cc/sDWCQBT6/GPMd1-L8ag-AAfbu0.jpg" style=""> <br>
Do you want to relive the concerts you've seen at BangBangCon this year? well, it's your lucky day! Because I got them right here! directly from the stream! Including Subtitles!<br>
<b><span style="text-decoration: underline">Date Shown</span>:</b> June 8th, 2024 (KST)<br>
<b><span style="text-decoration: underline">Platform</span></b>: YouTube (Premeire)<br>
<b><span style="text-decoration: underline">Synopsis</span></b>: BANG BANG CON is back for ARMY and FESTA in celebration of BTS 11th Anniversary! Spend your whole day with BTS watching BANG BANG CON!<br>
<b><span style="text-decoration: underline">Audio Language:</span></b> Korean<br>
<b><span style="text-decoration: underline">Subtitle Languages:</span></b> English, Spanish, Korean, Japanese, Chinese<br>
<br>
<b><span style="text-decoration: underline">BTS 2014 LIVE TRILOGY EPISODE II - THE RED BULLET<br>
<div class="ToggleTriggerAnchor bbCodeSpoilerContainer">
<button type="button" class="button bbCodeSpoilerButton ToggleTrigger Tooltip JsOnly" data-target="> .SpoilerTarget"><span>Spoiler: <span class="SpoilerTitle">Thumbnails</span></span></button>
<div class="SpoilerTarget bbCodeSpoilerText">(Thumbnail may be taken out)<br>
<img src="https://i.postimg.cc/Qx6srLns/2024-Bang-Bang-Con-BTS-2014-LIVE-TRILOGY-EPISODE-II-THE-RED-BULLET-mkv-thumbs-2024-06-09-11-47.jpg" class="bbCodeImage LbImage" alt="[​IMG]" data-url="https://i.postimg.cc/Qx6srLns/2024-Bang-Bang-Con-BTS-2014-LIVE-TRILOGY-EPISODE-II-THE-RED-BULLET-mkv-thumbs-2024-06-09-11-47.jpg" style=""></div>
</div></span></b><br>
<div class="ToggleTriggerAnchor bbCodeSpoilerContainer">
<button type="button" class="button bbCodeSpoilerButton ToggleTrigger Tooltip JsOnly" data-target="> .SpoilerTarget"><span>Spoiler: <span class="SpoilerTitle">MediaInfo</span></span></button>
<div class="SpoilerTarget bbCodeSpoilerText">General<br>
Unique ID : 51882408276762216308239773030617813100 (0x27083038EE9A716DB6CA0A5BA201906C)<br>
Format : Matroska<br>
Format version : Version 4<br>
File size : 2.59 GiB<br>
Duration : 1 h 45 min<br>
Overall bit rate : 3 514 kb/s<br>
Frame rate : 149.779 FPS<br>
Encoded date : 2024-06-08 14:30:21 UTC<br>
Writing application : Lavf60.3.100<br>
Writing library : Lavf60.3.100<br>
ErrorDetectionType : Per level 1<br>
MOVIE/ENCODER : Lavf60.3.100<br>
<br>
Video<br>
ID : 1<br>
Format : AVC<br>
Format/Info : Advanced Video Codec<br>
Format profile : High@L4<br>
Format settings : CABAC / 1 Ref Frames<br>
Format settings, CABAC : Yes<br>
Format settings, Reference : 1 frame<br>
Codec ID : V_MPEG4/ISO/AVC<br>
Duration : 1 h 45 min<br>
Bit rate : 2 836 kb/s<br>
Width : 1 920 pixels<br>
Height : 1 080 pixels<br>
Display aspect ratio : 16:9<br>
Frame rate mode : Variable<br>
Frame rate : 149.779 FPS<br>
Color space : YUV<br>
Chroma subsampling : 4:2:0<br>
Bit depth : 8 bits<br>
Scan type : Progressive<br>
Bits/(Pixel*Frame) : 0.009<br>
Stream size : 10.4 GiB<br>
Language : Korean<br>
Default : Yes<br>
Forced : No<br>
Color range : Limited<br>
Color primaries : BT.709<br>
Transfer characteristics : BT.709<br>
Matrix coefficients : BT.709<br>
<br>
Audio<br>
ID : 2<br>
Format : AAC LC<br>
Format/Info : Advanced Audio Codec Low Complexity<br>
Codec ID : A_AAC-2<br>
Duration : 1 h 45 min<br>
Bit rate : 128 kb/s<br>
Channel(s) : 2 channels<br>
Channel layout : L R<br>
Sampling rate : 44.1 kHz<br>
Frame rate : 43.066 FPS (1024 SPF)<br>
Compression mode : Lossy<br>
Delay relative to video : 9 ms<br>
Stream size : 483 MiB (18%)<br>
Language : Korean<br>
Default : Yes<br>
Forced : No<br>
<br>
Text #1<br>
ID : 3<br>
Format : UTF-8<br>
Codec ID : S_TEXT/UTF8<br>
Codec ID/Info : UTF-8 Plain Text<br>
Duration : 1 h 45 min<br>
Bit rate : 18 b/s<br>
Frame rate : 0.437 FPS<br>
Count of elements : 2772<br>
Stream size : 70.4 KiB (0%)<br>
Language : English<br>
Default : No<br>
Forced : No<br>
<br>
Text #2<br>
ID : 4<br>
Format : UTF-8<br>
Codec ID : S_TEXT/UTF8<br>
Codec ID/Info : UTF-8 Plain Text<br>
Duration : 1 h 45 min<br>
Bit rate : 19 b/s<br>
Frame rate : 0.438 FPS<br>
Count of elements : 2775<br>
Stream size : 75.6 KiB (0%)<br>
Language : Spanish<br>
Default : Yes<br>
Forced : No<br>
<br>
Text #3<br>
ID : 5<br>
Format : UTF-8<br>
Codec ID : S_TEXT/UTF8<br>
Codec ID/Info : UTF-8 Plain Text<br>
Duration : 1 h 45 min<br>
Bit rate : 26 b/s<br>
Frame rate : 0.443 FPS<br>
Count of elements : 2808<br>
Stream size : 101 KiB (0%)<br>
Language : Japanese<br>
Default : Yes<br>
Forced : No<br>
<br>
Text #4<br>
ID : 6<br>
Format : UTF-8<br>
Codec ID : S_TEXT/UTF8<br>
Codec ID/Info : UTF-8 Plain Text<br>
Duration : 1 h 45 min<br>
Bit rate : 22 b/s<br>
Frame rate : 0.438 FPS<br>
Count of elements : 2775<br>
Stream size : 87.7 KiB (0%)<br>
Language : Korean<br>
Default : Yes<br>
Forced : No<br>
<br>
Text #5<br>
ID : 7<br>
Format : UTF-8<br>
Codec ID : S_TEXT/UTF8<br>
Codec ID/Info : UTF-8 Plain Text<br>
Duration : 1 h 45 min<br>
Bit rate : 17 b/s<br>
Frame rate : 0.438 FPS<br>
Count of elements : 2775<br>
Stream size : 68.8 KiB (0%)<br>
Language : Chinese<br>
Default : Yes<br>
Forced : No</div>
</div><br>
<div class="bbCodeBlock bbCodeVfcHH HiddenContent">
<div class="attribution type">Hidden Content:</div>
<blockquote>You must either reply or click 'Like' to see the hidden information contained here.</blockquote>
</div><b><span style="text-decoration: underline">2017 BTS LIVE TRILOGY EPISODE III - THE WINGS TOUR THE FINAL<br>
</span></b><br>
<div class="ToggleTriggerAnchor bbCodeSpoilerContainer">
<button type="button" class="button bbCodeSpoilerButton ToggleTrigger Tooltip JsOnly" data-target="> .SpoilerTarget"><span>Spoiler: <span class="SpoilerTitle">Thumbnails</span></span></button>
<div class="SpoilerTarget bbCodeSpoilerText"><span style="text-decoration: underline"><b>(Thumbnail may be taken out)</b><br>
<img src="https://i.postimg.cc/qMB0YBwj/2024-Bang-Bang-Con-2017-BTS-LIVE-TRILOGY-EPISODE-III-THE-WINGS-TOUR-THE-FINAL-mkv-thumbs-2024-0.jpg" class="bbCodeImage LbImage" alt="[​IMG]" data-url="https://i.postimg.cc/qMB0YBwj/2024-Bang-Bang-Con-2017-BTS-LIVE-TRILOGY-EPISODE-III-THE-WINGS-TOUR-THE-FINAL-mkv-thumbs-2024-0.jpg" style=""> </span></div>
</div><br>
<div class="ToggleTriggerAnchor bbCodeSpoilerContainer">
<button type="button" class="button bbCodeSpoilerButton ToggleTrigger Tooltip JsOnly" data-target="> .SpoilerTarget"><span>Spoiler: <span class="SpoilerTitle">MediaInfo</span></span></button>
<div class="SpoilerTarget bbCodeSpoilerText">General<br>
Unique ID : 262289219911451908275482048766213602532 (0xC55310F72F5A929E4268A909ED7FBCE4)<br>
Format : Matroska<br>
Format version : Version 4<br>
File size : 3.16 GiB<br>
Duration : 2 h 59 min<br>
Overall bit rate : 2 528 kb/s<br>
Frame rate : 88.332 FPS<br>
Encoded date : 2024-06-08 14:30:21 UTC<br>
Writing application : Lavf60.3.100<br>
Writing library : Lavf60.3.100<br>
ErrorDetectionType : Per level 1<br>
MOVIE/ENCODER : Lavf60.3.100<br>
<br>
Video<br>
ID : 1<br>
Format : AVC<br>
Format/Info : Advanced Video Codec<br>
Format profile : High@L4<br>
Format settings : CABAC / 1 Ref Frames<br>
Format settings, CABAC : Yes<br>
Format settings, Reference : 1 frame<br>
Codec ID : V_MPEG4/ISO/AVC<br>
Duration : 2 h 59 min<br>
Bit rate : 2 836 kb/s<br>
Width : 1 920 pixels<br>
Height : 1 080 pixels<br>
Display aspect ratio : 16:9<br>
Frame rate mode : Variable<br>
Frame rate : 88.332 FPS<br>
Color space : YUV<br>
Chroma subsampling : 4:2:0<br>
Bit depth : 8 bits<br>
Scan type : Progressive<br>
Bits/(Pixel*Frame) : 0.015<br>
Stream size : 10.4 GiB<br>
Language : Korean<br>
Default : Yes<br>
Forced : No<br>
Color range : Limited<br>
Color primaries : BT.709<br>
Transfer characteristics : BT.709<br>
Matrix coefficients : BT.709<br>
<br>
Audio<br>
ID : 2<br>
Format : AAC LC<br>
Format/Info : Advanced Audio Codec Low Complexity<br>
Codec ID : A_AAC-2<br>
Duration : 2 h 59 min<br>
Bit rate : 128 kb/s<br>
Channel(s) : 2 channels<br>
Channel layout : L R<br>
Sampling rate : 44.1 kHz<br>
Frame rate : 43.066 FPS (1024 SPF)<br>
Compression mode : Lossy<br>
Delay relative to video : 1 ms<br>
Stream size : 483 MiB (15%)<br>
Language : Korean<br>
Default : Yes<br>
Forced : No<br>
<br>
Text #1<br>
ID : 3<br>
Format : UTF-8<br>
Codec ID : S_TEXT/UTF8<br>
Codec ID/Info : UTF-8 Plain Text<br>
Duration : 2 h 59 min<br>
Bit rate : 18 b/s<br>
Frame rate : 0.258 FPS<br>
Count of elements : 2772<br>
Stream size : 70.4 KiB (0%)<br>
Language : English<br>
Default : No<br>
Forced : No<br>
<br>
Text #2<br>
ID : 4<br>
Format : UTF-8<br>
Codec ID : S_TEXT/UTF8<br>
Codec ID/Info : UTF-8 Plain Text<br>
Duration : 2 h 59 min<br>
Bit rate : 19 b/s<br>
Frame rate : 0.258 FPS<br>
Count of elements : 2775<br>
Stream size : 75.6 KiB (0%)<br>
Language : Spanish<br>
Default : Yes<br>
Forced : No<br>
<br>
Text #3<br>
ID : 5<br>
Format : UTF-8<br>
Codec ID : S_TEXT/UTF8<br>
Codec ID/Info : UTF-8 Plain Text<br>
Duration : 2 h 59 min<br>
Bit rate : 26 b/s<br>
Frame rate : 0.261 FPS<br>
Count of elements : 2808<br>
Stream size : 101 KiB (0%)<br>
Language : Japanese<br>
Default : Yes<br>
Forced : No<br>
<br>
Text #4<br>
ID : 6<br>
Format : UTF-8<br>
Codec ID : S_TEXT/UTF8<br>
Codec ID/Info : UTF-8 Plain Text<br>
Duration : 2 h 59 min<br>
Bit rate : 22 b/s<br>
Frame rate : 0.258 FPS<br>
Count of elements : 2775<br>
Stream size : 87.7 KiB (0%)<br>
Language : Korean<br>
Default : Yes<br>
Forced : No<br>
<br>
Text #5<br>
ID : 7<br>
Format : UTF-8<br>
Codec ID : S_TEXT/UTF8<br>
Codec ID/Info : UTF-8 Plain Text<br>
Duration : 2 h 59 min<br>
Bit rate : 17 b/s<br>
Frame rate : 0.258 FPS<br>
Count of elements : 2775<br>
Stream size : 68.8 KiB (0%)<br>
Language : Chinese<br>
Default : Yes<br>
Forced : No</div>
</div><br>
<div class="bbCodeBlock bbCodeVfcHH HiddenContent">
<div class="attribution type">Hidden Content:</div>
<blockquote>You must either reply or click 'Like' to see the hidden information contained here.</blockquote>
</div><b><span style="text-decoration: underline">'LOVE YOURSELF: SPEAK YOURSELF' [THE FINAL]<br>
</span></b><br>
<div class="ToggleTriggerAnchor bbCodeSpoilerContainer">
<button type="button" class="button bbCodeSpoilerButton ToggleTrigger Tooltip JsOnly" data-target="> .SpoilerTarget"><span>Spoiler: <span class="SpoilerTitle">Thumbnails</span></span></button>
<div class="SpoilerTarget bbCodeSpoilerText"><b><span style="text-decoration: underline">(Thumbnail may be taken out)</span><br>
<img src="https://i.postimg.cc/XNk4QBfr/2024-Bang-Bang-Con-LOVE-YOURSELF-SPEAK-YOURSELF-THE-FINAL-mkv-thumbs-2024-06-09-11-48-54.jpg" class="bbCodeImage LbImage" alt="[​IMG]" data-url="https://i.postimg.cc/XNk4QBfr/2024-Bang-Bang-Con-LOVE-YOURSELF-SPEAK-YOURSELF-THE-FINAL-mkv-thumbs-2024-06-09-11-48-54.jpg" style=""> </b></div>
</div><br>
<div class="ToggleTriggerAnchor bbCodeSpoilerContainer">
<button type="button" class="button bbCodeSpoilerButton ToggleTrigger Tooltip JsOnly" data-target="> .SpoilerTarget"><span>Spoiler: <span class="SpoilerTitle">MediaInfo</span></span></button>
<div class="SpoilerTarget bbCodeSpoilerText">General<br>
Unique ID : 332683433414713779453977290985436133541 (0xFA487FA6F81356EC4CC5D7F5AAF0B8A5)<br>
Format : Matroska<br>
Format version : Version 4<br>
File size : 3.68 GiB<br>
Duration : 3 h 1 min<br>
Overall bit rate : 2 904 kb/s<br>
Frame rate : 87.205 FPS<br>
Encoded date : 2024-06-08 14:30:21 UTC<br>
Writing application : Lavf60.3.100<br>
Writing library : Lavf60.3.100<br>
ErrorDetectionType : Per level 1<br>
MOVIE/ENCODER : Lavf60.3.100<br>
<br>
Video<br>
ID : 1<br>
Format : AVC<br>
Format/Info : Advanced Video Codec<br>
Format profile : High@L4<br>
Format settings : CABAC / 1 Ref Frames<br>
Format settings, CABAC : Yes<br>
Format settings, Reference : 1 frame<br>
Codec ID : V_MPEG4/ISO/AVC<br>
Duration : 3 h 1 min<br>
Bit rate : 2 836 kb/s<br>
Width : 1 920 pixels<br>
Height : 1 080 pixels<br>
Display aspect ratio : 16:9<br>
Frame rate mode : Variable<br>
Frame rate : 87.205 FPS<br>
Color space : YUV<br>
Chroma subsampling : 4:2:0<br>
Bit depth : 8 bits<br>
Scan type : Progressive<br>
Bits/(Pixel*Frame) : 0.016<br>
Stream size : 10.4 GiB<br>
Language : Korean<br>
Default : Yes<br>
Forced : No<br>
Color range : Limited<br>
Color primaries : BT.709<br>
Transfer characteristics : BT.709<br>
Matrix coefficients : BT.709<br>
<br>
Audio<br>
ID : 2<br>
Format : AAC LC<br>
Format/Info : Advanced Audio Codec Low Complexity<br>
Codec ID : A_AAC-2<br>
Duration : 3 h 1 min<br>
Bit rate : 128 kb/s<br>
Channel(s) : 2 channels<br>
Channel layout : L R<br>
Sampling rate : 44.1 kHz<br>
Frame rate : 43.066 FPS (1024 SPF)<br>
Compression mode : Lossy<br>
Delay relative to video : 11 ms<br>
Stream size : 483 MiB (13%)<br>
Language : Korean<br>
Default : Yes<br>
Forced : No<br>
<br>
Text #1<br>
ID : 3<br>
Format : UTF-8<br>
Codec ID : S_TEXT/UTF8<br>
Codec ID/Info : UTF-8 Plain Text<br>
Duration : 2 h 56 min<br>
Bit rate : 18 b/s<br>
Frame rate : 0.262 FPS<br>
Count of elements : 2772<br>
Stream size : 70.4 KiB (0%)<br>
Language : English<br>
Default : No<br>
Forced : No<br>
<br>
Text #2<br>
ID : 4<br>
Format : UTF-8<br>
Codec ID : S_TEXT/UTF8<br>
Codec ID/Info : UTF-8 Plain Text<br>
Duration : 2 h 56 min<br>
Bit rate : 19 b/s<br>
Frame rate : 0.262 FPS<br>
Count of elements : 2775<br>
Stream size : 75.6 KiB (0%)<br>
Language : Spanish<br>
Default : Yes<br>
Forced : No<br>
<br>
Text #3<br>
ID : 5<br>
Format : UTF-8<br>
Codec ID : S_TEXT/UTF8<br>
Codec ID/Info : UTF-8 Plain Text<br>
Duration : 2 h 56 min<br>
Bit rate : 26 b/s<br>
Frame rate : 0.265 FPS<br>
Count of elements : 2808<br>
Stream size : 101 KiB (0%)<br>
Language : Japanese<br>
Default : Yes<br>
Forced : No<br>
<br>
Text #4<br>
ID : 6<br>
Format : UTF-8<br>
Codec ID : S_TEXT/UTF8<br>
Codec ID/Info : UTF-8 Plain Text<br>
Duration : 2 h 56 min<br>
Bit rate : 22 b/s<br>
Frame rate : 0.262 FPS<br>
Count of elements : 2775<br>
Stream size : 87.7 KiB (0%)<br>
Language : Korean<br>
Default : Yes<br>
Forced : No<br>
<br>
Text #5<br>
ID : 7<br>
Format : UTF-8<br>
Codec ID : S_TEXT/UTF8<br>
Codec ID/Info : UTF-8 Plain Text<br>
Duration : 2 h 56 min<br>
Bit rate : 17 b/s<br>
Frame rate : 0.262 FPS<br>
Count of elements : 2775<br>
Stream size : 68.8 KiB (0%)<br>
Language : Chinese<br>
Default : Yes<br>
Forced : No</div>
</div><br>
<div class="bbCodeBlock bbCodeVfcHH HiddenContent">
<div class="attribution type">Hidden Content:</div>
<blockquote>You must either reply or click 'Like' to see the hidden information contained here.</blockquote>
</div><b><span style="text-decoration: underline">Free Goodies! (No Need to Like or Reply!)</span></b><br>
<div class="ToggleTriggerAnchor bbCodeSpoilerContainer">
<button type="button" class="button bbCodeSpoilerButton ToggleTrigger Tooltip JsOnly" data-target="> .SpoilerTarget"><span>Spoiler: <span class="SpoilerTitle">Dear. ARMY, From. BTS</span></span></button>
<div class="SpoilerTarget bbCodeSpoilerText">Please note: This may be taken down.<span style="text-decoration: underline"><b> <br>
<img src="https://i.postimg.cc/TwcFqmzG/17e2024f-a973-4137-888c-7ffcd37729ba.jpg" class="bbCodeImage LbImage" alt="[​IMG]" data-url="https://i.postimg.cc/TwcFqmzG/17e2024f-a973-4137-888c-7ffcd37729ba.jpg" style=""> <br>
<img src="https://i.postimg.cc/R0Kjh2GW/4860ce25-0e42-40ac-8d71-2cc5551e15a6.jpg" class="bbCodeImage LbImage" alt="[​IMG]" data-url="https://i.postimg.cc/R0Kjh2GW/4860ce25-0e42-40ac-8d71-2cc5551e15a6.jpg" style=""> <br>
<img src="https://i.postimg.cc/RZjkMv1r/a2e5a147-0036-4c13-8cd4-415191a65e4f.jpg" class="bbCodeImage LbImage" alt="[​IMG]" data-url="https://i.postimg.cc/RZjkMv1r/a2e5a147-0036-4c13-8cd4-415191a65e4f.jpg" style=""> <br>
<img src="https://i.postimg.cc/hjnNdM3p/ab67cfa7-64d8-4a84-9acc-58eab61caaee.jpg" class="bbCodeImage LbImage" alt="[​IMG]" data-url="https://i.postimg.cc/hjnNdM3p/ab67cfa7-64d8-4a84-9acc-58eab61caaee.jpg" style=""> <br>
<img src="https://i.postimg.cc/htzFWXdb/ad9985d6-e3ce-4fe3-8ba6-8841d5e4fbbf.jpg" class="bbCodeImage LbImage" alt="[​IMG]" data-url="https://i.postimg.cc/htzFWXdb/ad9985d6-e3ce-4fe3-8ba6-8841d5e4fbbf.jpg" style=""> <br>
<img src="https://i.postimg.cc/yxQG2K6b/b63f9bf8-2b28-4efb-b5eb-bc319fc675a5.jpg" class="bbCodeImage LbImage" alt="[​IMG]" data-url="https://i.postimg.cc/yxQG2K6b/b63f9bf8-2b28-4efb-b5eb-bc319fc675a5.jpg" style=""> <br>
<img src="https://i.postimg.cc/tJCfrJb6/f4b2a89f-5032-4580-9f5b-c29205b9d7bc.jpg" class="bbCodeImage LbImage" alt="[​IMG]" data-url="https://i.postimg.cc/tJCfrJb6/f4b2a89f-5032-4580-9f5b-c29205b9d7bc.jpg" style=""> </b><br>
</span></div>
</div><b><span style="text-decoration: underline"><br>
</span></b><br>
<div class="ToggleTriggerAnchor bbCodeSpoilerContainer">
<button type="button" class="button bbCodeSpoilerButton ToggleTrigger Tooltip JsOnly" data-target="> .SpoilerTarget"><span>Spoiler: <span class="SpoilerTitle">Intermissions</span></span></button>
<div class="SpoilerTarget bbCodeSpoilerText">Please note: Some of these are labled with '(Can't Identify)', because even though i know these songs, i dont' know what location is.<br>
The BTS Cam of the perfomances: <a href="https://pixeldrain.com/l/JT82WxAu" target="_blank" class="externalLink" rel="nofollow">https://pixeldrain.com/l/JT82WxAu</a><br>
The videos where the offical YouTube channel uploaded them: <span data-s9e-mediaembed="youtube" style="display:inline-block;width:100%;max-width:640px"><span style="display:block;overflow:hidden;position:relative;padding-bottom:56.25%"><iframe allowfullscreen="" loading="lazy" scrolling="no" style="background:url(https://i.ytimg.com/vi//hqdefault.jpg) 50% 50% / cover;border:0;height:100%;left:0;position:absolute;width:100%" src="https://www.youtube.com/embed/?list=PLEfORGVKJLgKzaHqIsHj7dKaD6mJvt_VY"></iframe></span></span></div>
</div><b><span style="text-decoration: underline"><br>
</span></b>
<div class="messageTextEndMarker">&nbsp;</div>
</blockquote>
</article>]]></description>
                <author><![CDATA[charlescanlom]]></author>
                </item>

                </channel></rss>